<svg width="159" height="199" viewBox="0 0 159 199" fill="none" xmlns="http://www.w3.org/2000/svg">
<path d="M48.5128 3.09799C49.3738 0.617277 52.1928 -0.602575 54.4993 0.832546C58.8251 3.31326 61.5108 7.73138 64.6476 11.4627C76.4258 27.4335 81.8588 46.8589 87.1688 65.6898C90.7463 59.2625 94.0266 52.6097 98.3934 46.6744C104.042 39.7038 110.551 33.2868 118.342 28.7559C124.431 25.2399 130.181 21.0678 136.65 18.2693C138.608 17.2954 141.232 18.2795 142.072 20.2989C142.38 23.0769 141.529 25.7934 140.904 28.4689C136.783 44.0912 128.049 58.4732 116.076 69.3288C127.178 65.0337 139.223 64.4187 150.991 64.1111C152.969 63.8651 154.343 65.454 155.839 66.4483C151.893 73.2652 144.861 77.509 138.505 81.8144C129.32 86.8271 120.464 92.6803 110.448 95.9503C104.862 97.9698 99.0495 99.3741 93.6166 101.834C98.7112 101.896 103.806 101.537 108.839 100.799C122.616 98.4413 136.363 95.7966 149.832 92.055C152.662 91.3682 155.511 90.1381 158.474 90.7941C159.868 92.9058 156.854 93.6746 155.542 94.505C143.959 99.3331 131.452 101.168 119.244 103.72C110.438 105.75 101.407 106.785 92.3762 106.806C95.1234 111.675 101.223 111.573 105.979 112.936C111.525 114.525 117.101 116.278 122.186 119.046C124.215 119.784 123.928 122.131 124.041 123.853C123.969 129.399 125.261 135.006 123.334 140.388C120.945 155.088 117.973 169.705 113.903 184.036C112.663 187.685 112.98 192.544 109.464 194.953C101.325 198.664 92.1404 198.531 83.3862 198.879C73.4018 198.326 62.9562 198.418 53.6587 194.266C49.0458 192.134 47.6004 186.814 46.3396 182.334C42.4647 167.04 39.3792 151.52 37.5956 135.836C37.1445 135.539 36.2322 134.945 35.7812 134.647C35.3301 129.512 33.8643 124.273 34.6023 119.148C36.386 117.846 38.8974 118.717 40.9476 118.84C48.1642 120.112 55.4731 121.014 62.8127 121.208C63.479 119.23 67.7331 118.307 65.97 116.022C59.4094 114.299 53.1461 119.261 46.5138 118.164C37.9646 117.672 30.0919 114.064 22.2705 110.917C14.2851 107.544 7.84757 101.547 1.05125 96.3296C-0.0455929 95.7658 0.93849 94.2487 1.6253 93.7669C3.65497 92.3215 6.25869 92.219 8.65739 91.9832C18.4367 91.5835 28.2263 91.4809 38.0056 91.4399C29.3436 83.3213 23.4494 72.9269 16.8068 63.2193C13.7008 58.4732 8.84191 54.9469 6.63797 49.6369C9.28269 49.1961 11.9787 48.6016 14.6644 49.0629C24.5667 50.4672 33.7413 54.6804 42.8133 58.6782C47.1391 60.7181 51.6905 62.3787 55.5243 65.3105C52.8694 61.8355 51.9673 57.4891 50.9012 53.3375C48.7383 43.8657 47.1186 34.2299 46.6266 24.512C46.073 17.3877 45.827 9.84306 48.5128 3.09799ZM51.2395 21.406C52.0903 37.8689 54.2942 54.7213 61.7979 69.6261C63.9506 73.4907 66.0725 77.632 69.7115 80.3383C74.6115 78.3393 78.8861 74.6183 84.2165 73.8495C83.2529 65.8435 79.2653 58.6884 77.2562 50.9695C72.3768 34.3529 66.0622 17.2339 52.9206 5.29167C50.4502 10.2428 51.383 16.0551 51.2395 21.406ZM120.341 33.5431C122.75 35.0602 124.953 36.9463 126.358 39.4681C123.857 37.8792 121.458 36.1365 119.356 34.0454C108.378 40.6879 100.177 51.113 94.2214 62.3275C91.1153 67.2479 89.1062 72.8346 88.7269 78.6674C93.1245 76.8017 97.3376 74.5465 101.663 72.5373C111.115 68.2525 118.352 60.3901 124.297 52.0766C130.632 43.2814 135.768 33.3483 137.654 22.5951C131.832 26.1624 125.671 29.2479 120.341 33.5431ZM13.7008 53.6963C24.0029 62.553 28.6671 76.2687 39.3792 84.7666C44.9147 88.9285 48.9433 95.243 55.8011 97.447C63.274 99.6611 71.0134 101.322 78.804 101.793C75.5545 95.489 71.9667 88.949 66.4415 84.3669C63.5098 88.1392 59.2454 91.6347 54.1815 91.2862C52.3568 91.2144 51.342 89.687 50.5732 88.2519C53.0744 88.0674 55.1041 90.2098 57.6053 89.8101C61.3263 89.236 63.6225 85.9045 66.462 83.7825C63.5815 79.1594 59.2864 75.6536 55.8216 71.4713C52.3876 67.2992 46.9239 66.1101 42.0445 64.5007C41.2141 67.9962 39.3177 71.256 36.5705 73.5829C37.7083 70.3129 39.5535 67.3607 41.2449 64.3572C33.3825 58.0836 23.3161 55.8182 13.7008 53.6963ZM114.938 73.7982C111.72 75.6331 108.419 77.3655 104.8 78.3188C107.219 80.9328 109.116 83.9773 110.5 87.2473C106.984 84.7769 106.102 79.3132 101.961 77.8473C94.9184 81.4454 89.4752 87.6164 84.2063 93.3979C86.0514 94.2692 87.6505 95.53 88.9524 97.1087C88.4809 97.6725 88.0093 98.2363 87.5378 98.7898C85.7746 96.6986 83.827 98.2773 83.0069 100.112C86.523 100.584 89.506 98.3695 92.735 97.3957C100.587 94.2179 109.013 92.5163 116.537 88.5389C128.203 82.778 139.602 76.2789 149.863 68.2525C138.126 69.2776 126.225 70.1182 114.938 73.7982ZM74.591 83.8543C75.4828 87.6574 77.5945 91.0402 79.6549 94.3204C80.803 89.9433 81.1823 85.4022 81.09 80.8918C78.8041 81.2608 75.7288 81.5171 74.591 83.8543ZM83.2119 88.0777C85.0981 85.9045 87.9786 83.9773 88.2143 80.9021C85.2621 82.0707 84.401 85.4432 83.2119 88.0777ZM8.22685 96.5039C13.9673 100.389 19.3388 104.951 25.7968 107.647C35.9862 112.229 47.9079 115.632 58.8149 111.501C61.8389 110.681 64.7091 109.051 65.8982 105.965C60.5063 103.71 54.4685 103.31 49.2611 100.573C46.7291 99.0256 44.2996 97.3137 41.6139 96.0528C41.6754 97.1292 41.7984 99.2716 41.8599 100.348C39.902 100.092 39.3485 98.1953 38.5899 96.6781C28.4723 96.2681 18.324 95.6633 8.22685 96.5039ZM72.3973 106.099C73.3608 114.248 78.1685 121.424 78.558 129.665C70.5316 129.778 62.4949 129.368 54.5095 128.528C49.3738 127.769 44.0434 126.908 39.6253 123.956C39.943 126.57 39.8815 129.286 40.7528 131.808C42.6493 133.417 45.1197 134.084 47.4467 134.811C57.759 137.712 68.5839 137.518 79.2038 137.661C92.5505 137.887 106.102 136.523 118.782 132.197C119.008 130.004 119.09 127.79 119.213 125.586C113.883 127.185 108.409 128.353 102.842 128.589C95.8205 129.348 88.7781 130.065 81.705 129.768C82.2893 121.742 81.1515 113.746 80.5877 105.75C77.861 105.76 75.124 105.832 72.3973 106.099ZM84.0012 106.642C84.6881 112.188 86.1847 117.723 84.6163 123.218C86.2769 118.02 88.5219 112.505 87.2918 106.98C86.2154 106.734 85.1186 106.621 84.0012 106.642ZM68.5019 115.673C68.6454 112.792 68.2764 109.933 67.6101 107.144C65.2524 109.758 66.0417 113.438 68.5019 115.673ZM92.2839 113.356C92.7452 115.509 90.9308 120.122 94.4469 120.112C101.397 120.358 108.214 121.803 115.174 121.875C114.375 122.428 113.575 122.982 112.775 123.525C108.357 122.244 104.165 125.022 99.7671 124.243C96.087 123.751 91.5049 127.01 88.8396 123.054C89.1984 122.459 89.9262 121.27 90.285 120.675C88.8191 122.152 87.4968 123.781 86.2564 125.452C88.9729 126.026 91.7509 126.641 94.5494 126.385C101.202 125.934 107.886 125.534 114.416 124.099C114.61 123.658 114.99 122.777 115.174 122.346C116.24 122.398 118.362 122.51 119.428 122.562C110.93 117.99 101.366 116.319 92.2839 113.356ZM70.0703 118.184C68.6864 119.24 70.3163 121.957 71.813 120.716C73.1456 119.661 71.5362 117.108 70.0703 118.184ZM40.2403 121.229C44.8122 124.663 50.8807 123.761 56.0881 125.37C58.5586 126.129 61.1213 126.488 63.6943 126.529C61.9721 124.355 59.2249 123.853 56.6212 123.587C51.1062 123.115 45.8168 121.044 40.2403 121.229ZM64.1761 121.844C64.5143 123.105 64.9039 124.366 65.2934 125.627C68.7172 125.832 72.1307 126.344 75.5648 126.293C75.288 125.586 74.7242 124.181 74.4372 123.484C72.2333 123.751 70.0908 124.355 67.9279 124.837C66.2673 124.632 65.4984 122.705 64.1761 121.844ZM66.9233 139.988C58.3023 139.927 49.8761 137.999 41.4807 136.267C43.3053 149.019 45.827 161.658 48.6255 174.226C49.7531 178.675 50.6244 183.267 52.6438 187.419C53.997 190.156 57.1132 191.109 59.8195 191.919C67.7844 194.174 76.1286 194.482 84.3498 194.769C91.5459 194.451 98.947 194.236 105.754 191.663C107.137 191.273 107.67 189.91 108.132 188.71C113.78 171.468 116.958 153.581 120.289 135.785C102.863 140.05 84.7906 141.116 66.9233 139.988Z" fill="#269000"/>
<path d="M69.9277 52.6818C72.8287 52.3845 75.8322 53.3583 77.3186 56.0133C74.7866 55.1215 71.8651 54.6807 69.9277 52.6818Z" fill="#269000"/>
</svg>
